<?xml version="1.0" standalone="no"?>
<!DOCTYPE svg PUBLIC "-//W3C//DTD SVG 20010904//EN"
 "http://www.w3.org/TR/2001/REC-SVG-20010904/DTD/svg10.dtd">
<svg version="1.0" xmlns="http://www.w3.org/2000/svg"
 width="421.000000pt" height="497.000000pt" viewBox="0 0 421.000000 497.000000"
 preserveAspectRatio="xMidYMid meet">

<g transform="translate(0.000000,497.000000) scale(0.100000,-0.100000)"
fill="#000000" stroke="none">
<path d="M2790 4935 c-349 -60 -626 -244 -790 -525 -122 -208 -166 -409 -140
-630 44 -380 251 -631 850 -1030 252 -168 358 -249 466 -355 176 -174 250
-323 274 -548 34 -326 -105 -571 -375 -664 -72 -24 -94 -27 -220 -28 -148 0
-207 11 -327 59 -299 121 -542 449 -699 944 -26 81 -25 80 -119 58 -54 -13
-55 -13 -52 -47 2 -34 117 -876 127 -936 5 -29 15 -36 108 -81 475 -232 1043
-291 1455 -153 626 210 979 849 790 1431 -54 167 -167 329 -342 489 -150 138
-289 237 -611 436 -338 210 -528 380 -610 549 -151 308 -62 634 210 768 54 27
118 44 208 54 l57 6 0 109 0 109 -92 -1 c-51 -1 -127 -7 -168 -14z"/>
<path d="M180 4835 c0 -8 -7 -15 -15 -15 -12 0 -15 -14 -15 -65 l0 -65 53 0
c197 0 325 -74 374 -214 17 -48 18 -144 18 -1656 0 -1689 0 -1699 -45 -1914
-63 -304 -202 -523 -451 -709 l-77 -58 27 -69 c14 -39 29 -70 33 -70 15 0 233
101 328 152 571 306 841 664 953 1263 19 106 20 156 27 1555 4 938 10 1457 17
1480 44 150 150 223 344 237 l89 6 0 78 0 79 -830 0 c-731 0 -830 -2 -830 -15z"/>
<path d="M3548 4548 l-188 -249 103 -137 c57 -75 143 -188 190 -250 l86 -113
190 248 c105 136 189 253 187 259 -5 13 -364 482 -374 487 -4 2 -91 -108 -194
-245z"/>
</g>
</svg>
